<svg width="73" height="24" viewBox="0 0 73 24" fill="none" xmlns="http://www.w3.org/2000/svg">
<path d="M17.3946 8.93326C16.9378 8.61028 16.5143 8.31153 16.0659 8.04507C15.2965 7.57828 14.4832 7.18355 13.637 6.86621C12.0527 6.27969 10.7609 5.12332 10.029 3.63644C9.5013 2.57047 9.08405 1.45609 8.78337 0.309773C8.75015 0.192693 8.746 0.115986 8.90792 0.0958003C10.5308 -0.141443 12.1895 0.0640078 13.6993 0.68927C14.5606 1.06799 15.3081 1.65444 15.8708 2.39297C16.569 3.33129 17.0325 4.41508 17.2243 5.55815C17.3588 6.3808 17.4296 7.21211 17.4361 8.04507C17.4361 8.32768 17.4112 8.60624 17.3946 8.93326ZM13.8612 1.76721C13.8031 1.76721 13.7118 1.73895 13.6868 1.8318C13.6619 1.92466 13.7408 1.94888 13.7823 2.00136C14.2432 2.5262 14.6833 3.07123 15.1691 3.57588C15.4185 3.86347 15.7468 4.07628 16.1157 4.18953C16.2735 4.22991 16.3275 4.18953 16.2611 4.04016C16.183 3.81793 16.0844 3.60307 15.9663 3.39824C15.586 2.84297 15.0876 2.37351 14.5048 2.02155C14.3182 1.8812 14.0956 1.79323 13.8612 1.76721Z" fill="#2C2929"/>
<path d="M18.7481 15.5179C18.7603 15.4867 18.7687 15.4542 18.773 15.421C18.773 13.7658 18.773 12.1065 18.773 10.4512C18.773 10.2695 18.6734 10.2695 18.5405 10.2695C17.8887 10.2695 17.241 10.2695 16.5891 10.2695C16.3607 10.2695 16.2943 10.318 16.2943 10.5481C16.2943 12.0863 16.2611 15.2353 16.2694 15.3524C16.2694 17.7949 16.3109 20.3989 16.2985 22.8414C16.2985 23.019 16.3981 23.0029 16.5185 23.0029C17.1745 23.0029 17.8347 23.0029 18.4949 23.0029C18.7066 23.0029 18.773 22.9585 18.773 22.7405C18.773 20.5523 18.773 18.3682 18.773 16.184C18.7689 15.962 18.7564 15.748 18.7481 15.5179Z" fill="#2C2929"/>
<path d="M58.4867 19.6239C57.9469 18.1617 57.2511 16.7586 56.4107 15.4373C56.4022 15.4056 56.3911 15.3745 56.3775 15.3445C55.2406 13.5651 53.9189 11.9038 52.4331 10.3868C52.3905 10.3452 52.3391 10.3133 52.2824 10.293C52.2258 10.2728 52.1653 10.2648 52.1051 10.2697C51.4699 10.2697 50.8595 10.2697 50.2077 10.2697C50.129 10.2652 50.0503 10.279 49.9781 10.3099C49.9059 10.3408 49.8423 10.3879 49.7925 10.4473C48.8886 11.3807 48.0468 12.3691 47.2722 13.4066C46.7632 14.0589 46.3025 14.7456 45.8938 15.4615C45.0615 16.7602 44.366 18.1371 43.8178 19.5714C43.3791 20.6813 43.0265 21.8217 42.7632 22.9829C42.8462 22.9829 42.9168 22.9829 42.9874 22.9829C43.6725 22.9829 44.3575 22.9829 45.0634 22.9829C45.0965 22.9886 45.1305 22.9876 45.1633 22.98C45.196 22.9724 45.2268 22.9583 45.2536 22.9386C45.2805 22.9189 45.3029 22.894 45.3195 22.8655C45.3361 22.837 45.3464 22.8055 45.3499 22.7729C45.5907 21.917 45.8813 21.0773 46.1803 20.2456C46.8173 18.5878 47.5849 16.9803 48.4763 15.4373C48.522 15.3768 48.5718 15.3162 48.6133 15.2516C49.2634 14.1585 50.0454 13.1447 50.9426 12.2318C51.0796 12.0985 51.1543 12.0864 51.2955 12.2318C51.8564 12.7844 52.3624 13.3873 52.8068 14.0324C53.1348 14.5128 53.4504 15.0053 53.7701 15.4898C54.2849 16.4466 54.8164 17.3913 55.2606 18.441H54.2392C52.2629 18.441 50.2866 18.441 48.3102 18.4087C48.2147 18.4087 48.0902 18.3522 48.0237 18.4733C47.8061 18.8138 47.6278 19.1766 47.4923 19.5553C47.4134 19.8581 47.4259 19.8702 47.7497 19.8702H55.6343C55.7143 19.8577 55.7962 19.8748 55.8638 19.9182C55.9315 19.9615 55.9799 20.0279 55.9997 20.1043C56.3443 20.9925 56.6723 21.8847 56.9422 22.7931C56.9456 22.8241 56.9556 22.854 56.9716 22.8811C56.9875 22.9081 57.009 22.9317 57.0347 22.9503C57.0605 22.9688 57.0899 22.982 57.1211 22.989C57.1523 22.996 57.1847 22.9967 57.2162 22.9909C57.9082 22.9909 58.6002 22.9909 59.2922 22.9909C59.4832 22.9909 59.4998 22.9385 59.4624 22.7729C59.2082 21.7037 58.8823 20.6518 58.4867 19.6239Z" fill="#2C2929"/>
<path d="M72.6823 21.6949C70.436 21.6949 68.1857 21.6949 65.9395 21.6949C65.6862 21.6949 65.6405 21.6141 65.6447 21.3921C65.6447 19.6843 65.6447 17.9766 65.6447 16.2689C65.6447 16.0145 65.6447 15.7561 65.6239 15.5018C65.6374 15.4707 65.6471 15.4382 65.653 15.4049C65.653 13.7496 65.653 12.0904 65.653 10.4351C65.653 10.2534 65.5533 10.2534 65.4205 10.2534C64.7728 10.2534 64.1209 10.2534 63.4732 10.2534C63.2448 10.2534 63.1742 10.3019 63.1784 10.532C63.1784 12.0702 63.1784 13.6083 63.1784 15.1465C63.1784 15.2636 63.1784 15.3807 63.1784 15.5018C63.1784 15.5422 63.1784 15.5866 63.1784 15.6269C63.1784 18.0129 63.1784 20.3949 63.1784 22.7769C63.1784 22.9787 63.2656 22.9908 63.4275 22.9908H69.751C70.7557 22.9908 71.7564 22.9908 72.757 22.9908C72.9397 22.9908 73.0061 22.9464 72.9937 22.7647C72.975 22.5094 72.975 22.253 72.9937 21.9977C73.0144 21.7675 72.948 21.6949 72.6823 21.6949Z" fill="#2C2929"/>
<path d="M11.8434 10.2656C8.3087 10.2656 4.77537 10.2656 1.24343 10.2656C0.919575 10.2656 0.595721 10.2656 0.271867 10.2656C0.0725723 10.2656 -0.0146192 10.302 0.00198872 10.5159C0.0221315 10.7847 0.0221315 11.0546 0.00198872 11.3234C0.00198872 11.5656 0.0725723 11.6181 0.309235 11.6181C1.74997 11.6181 3.1907 11.6181 4.63144 11.6181C4.81413 11.6181 4.87225 11.6706 4.8681 11.8482C4.8681 12.5144 4.8681 13.1805 4.8681 13.8466C4.8681 14.4199 4.8681 14.9932 4.8681 15.5624C4.8681 17.9848 4.8681 20.4071 4.8681 22.8294C4.8681 23.003 4.94284 23.0192 5.08816 23.0192C5.72756 23.0192 6.37112 23.0192 7.01052 23.0192C7.22642 23.0192 7.2887 22.9707 7.2887 22.7527C7.2887 20.5605 7.2887 18.3643 7.2887 16.1721C7.2887 15.9742 7.2887 15.7683 7.2887 15.5826C7.31971 15.5028 7.32831 15.4164 7.31361 15.3323C7.31361 14.2059 7.31361 13.0755 7.31361 11.9491C7.31361 11.7069 7.36759 11.6302 7.62916 11.6342C9.06159 11.6342 10.494 11.6342 11.9265 11.6342C12.1299 11.6342 12.2088 11.5898 12.1922 11.3799C12.1718 11.1111 12.1718 10.8412 12.1922 10.5725C12.1756 10.306 12.0718 10.2656 11.8434 10.2656Z" fill="#2C2929"/>
<path d="M36.4146 18.7477C35.491 17.6109 34.4442 16.5741 33.2924 15.6552C32.8769 15.3084 32.434 14.9938 31.9679 14.7145C32.0094 14.6822 32.026 14.662 32.0468 14.6499C33.0504 14.2149 34.0014 13.6734 34.8826 13.035C35.8745 12.3871 36.8129 11.6649 37.6893 10.8751C37.892 10.7135 38.0479 10.5034 38.1419 10.2655C37.1537 10.2655 36.1946 10.2655 35.2355 10.2655C35.1479 10.2745 35.0674 10.3165 35.0113 10.3826C33.5317 11.6199 31.9016 12.6761 30.1576 13.5276C28.8949 14.2086 27.5093 14.6472 26.0762 14.8195C25.7441 14.8477 25.7441 14.8558 25.7441 14.5248C25.7441 13.2005 25.7441 11.8763 25.7441 10.5521C25.7441 10.3059 25.6652 10.2574 25.4327 10.2615C24.7642 10.2615 24.0999 10.2615 23.4314 10.2615C23.1865 10.2615 23.1034 10.3059 23.1076 10.5642C23.1076 12.058 23.1076 13.5518 23.1076 15.0496C23.1076 15.2515 23.1076 15.4533 23.1076 15.6592C23.1076 18.0412 23.1076 20.4231 23.1076 22.8051C23.1076 22.9787 23.1782 22.9989 23.3276 22.9989C24.0293 22.9989 24.731 22.9989 25.4327 22.9989C25.6652 22.9989 25.7441 22.9545 25.7441 22.7122C25.7441 20.8309 25.7441 18.9536 25.7441 17.0601C25.7441 16.8502 25.7814 16.7371 26.0223 16.7048C26.2631 16.6726 26.6201 16.5716 26.9191 16.499C27.7392 16.3444 28.5312 16.0722 29.2691 15.6915H29.5348L29.8379 15.8368C31.0305 16.4467 32.0952 17.2683 32.9768 18.2592C34.3227 19.6093 35.4309 21.1656 36.2569 22.8656C36.2691 22.9011 36.2935 22.9313 36.3261 22.9512C36.3586 22.9711 36.3973 22.9794 36.4354 22.9746H38.7273C38.8643 22.9746 38.8892 22.9343 38.856 22.8091C38.7826 22.5009 38.6812 22.1996 38.5529 21.9088C37.9939 20.764 37.2743 19.7002 36.4146 18.7477Z" fill="#2C2929"/>
<path d="M13.8613 1.76733C14.0957 1.79336 14.3183 1.88133 14.5049 2.02168C15.086 2.36896 15.5842 2.8328 15.9664 3.38222C16.0854 3.59221 16.1841 3.81252 16.2611 4.04028C16.3276 4.18562 16.2611 4.23003 16.1158 4.18966C15.7469 4.07641 15.4186 3.8636 15.1692 3.57601C14.6834 3.07135 14.2433 2.52633 13.7824 2.02168C13.7409 1.96919 13.6662 1.92882 13.6869 1.85212C13.7077 1.77541 13.8032 1.78348 13.8613 1.76733Z" fill="#2C2929"/>
</svg>
