<svg width="92" height="29" viewBox="0 0 92 29" fill="none" xmlns="http://www.w3.org/2000/svg">
<g clip-path="url(#clip0)">
<path d="M21.9246 11.2599C21.349 10.8527 20.8153 10.476 20.2501 10.1401C19.2804 9.5515 18.2555 9.0538 17.189 8.65367C15.1923 7.91414 13.5643 6.45612 12.6419 4.58135C11.9769 3.2373 11.4511 1.83222 11.0721 0.38686C11.0302 0.239238 11.025 0.142521 11.2291 0.117069C13.2743 -0.182064 15.3647 0.0769824 17.2675 0.865357C18.353 1.34287 19.295 2.08231 20.0042 3.0135C20.8842 4.1966 21.4683 5.56311 21.71 7.00438C21.8796 8.04163 21.9688 9.08981 21.9769 10.1401C21.9769 10.4964 21.9455 10.8476 21.9246 11.2599ZM17.4716 2.22449C17.3984 2.22449 17.2832 2.18886 17.2518 2.30594C17.2204 2.42302 17.3199 2.45356 17.3722 2.51974C17.953 3.18149 18.5077 3.86869 19.1199 4.50499C19.4342 4.86761 19.8479 5.13593 20.3129 5.27873C20.5118 5.32964 20.5798 5.27873 20.4961 5.09039C20.3977 4.81018 20.2734 4.53927 20.1245 4.28101C19.6453 3.58089 19.0172 2.98896 18.2827 2.54519C18.0475 2.36822 17.767 2.25731 17.4716 2.22449Z" fill="white"/>
<path d="M23.6304 19.5624C23.6458 19.523 23.6564 19.482 23.6618 19.4402C23.6618 17.3532 23.6618 15.261 23.6618 13.174C23.6618 12.9449 23.5363 12.9449 23.3688 12.9449C22.5473 12.9449 21.731 12.9449 20.9095 12.9449C20.6217 12.9449 20.538 13.006 20.538 13.2961C20.538 15.2356 20.4961 19.2061 20.5066 19.3537C20.5066 22.4334 20.5589 25.7167 20.5432 28.7964C20.5432 29.0204 20.6688 29 20.8205 29C21.6473 29 22.4793 29 23.3113 29C23.5781 29 23.6618 28.944 23.6618 28.6691C23.6618 25.9101 23.6618 23.1562 23.6618 20.4023C23.6566 20.1223 23.6409 19.8526 23.6304 19.5624Z" fill="white"/>
<path d="M73.712 24.7393C73.0316 22.8957 72.1548 21.1265 71.0956 19.4606C71.0849 19.4206 71.0709 19.3814 71.0538 19.3435C69.6209 17.0999 67.9552 15.0053 66.0828 13.0925C66.029 13.0401 65.9642 12.9998 65.8928 12.9743C65.8214 12.9488 65.7452 12.9388 65.6694 12.9449C64.8688 12.9449 64.0996 12.9449 63.2781 12.9449C63.1789 12.9393 63.0797 12.9566 62.9887 12.9956C62.8978 13.0345 62.8176 13.0939 62.7548 13.1689C61.6156 14.3457 60.5548 15.5919 59.5786 16.9001C58.9371 17.7226 58.3565 18.5884 57.8414 19.4911C56.7926 21.1286 55.916 22.8647 55.2251 24.6732C54.6722 26.0726 54.2279 27.5104 53.896 28.9745C54.0006 28.9745 54.0896 28.9745 54.1786 28.9745C55.0419 28.9745 55.9053 28.9745 56.7949 28.9745C56.8366 28.9818 56.8795 28.9805 56.9207 28.9709C56.962 28.9613 57.0008 28.9435 57.0347 28.9187C57.0685 28.8938 57.0968 28.8625 57.1177 28.8265C57.1385 28.7906 57.1515 28.7509 57.1559 28.7098C57.4594 27.6307 57.8257 26.5719 58.2024 25.5232C59.0053 23.433 59.9727 21.4061 61.0961 19.4606C61.1537 19.3842 61.2164 19.3079 61.2688 19.2264C62.0881 17.8481 63.0735 16.5699 64.2043 15.4188C64.3769 15.2508 64.4711 15.2356 64.649 15.4188C65.356 16.1156 65.9937 16.8757 66.5537 17.6891C66.9671 18.2949 67.3648 18.9159 67.7677 19.5268C68.4165 20.7332 69.0863 21.9243 69.6462 23.2478H68.359C65.8682 23.2478 63.3775 23.2478 60.8868 23.2071C60.7664 23.2071 60.6095 23.1359 60.5257 23.2886C60.2514 23.7179 60.0268 24.1754 59.856 24.6528C59.7565 25.0346 59.7722 25.0498 60.1804 25.0498H70.1171C70.2179 25.0341 70.3211 25.0557 70.4064 25.1104C70.4916 25.165 70.5527 25.2488 70.5776 25.3451C71.0119 26.465 71.4253 27.59 71.7654 28.7353C71.7698 28.7744 71.7824 28.8121 71.8025 28.8462C71.8225 28.8803 71.8496 28.91 71.8821 28.9334C71.9145 28.9568 71.9515 28.9735 71.9909 28.9823C72.0303 28.9911 72.0711 28.992 72.1108 28.9847C72.9829 28.9847 73.855 28.9847 74.7271 28.9847C74.9678 28.9847 74.9887 28.9185 74.9416 28.7098C74.6212 27.3617 74.2104 26.0353 73.712 24.7393Z" fill="white"/>
<path d="M91.6024 27.3507C88.7716 27.3507 85.9355 27.3507 83.1047 27.3507C82.7855 27.3507 82.7279 27.2489 82.7331 26.9689C82.7331 24.8157 82.7331 22.6624 82.7331 20.5092C82.7331 20.1885 82.7331 19.8627 82.707 19.542C82.724 19.5028 82.7363 19.4618 82.7436 19.4198C82.7436 17.3328 82.7436 15.2406 82.7436 13.1536C82.7436 12.9245 82.618 12.9245 82.4506 12.9245C81.6343 12.9245 80.8128 12.9245 79.9965 12.9245C79.7087 12.9245 79.6197 12.9856 79.625 13.2757C79.625 15.2152 79.625 17.1546 79.625 19.0941C79.625 19.2417 79.625 19.3893 79.625 19.542C79.625 19.5929 79.625 19.6489 79.625 19.6998C79.625 22.7082 79.625 25.7116 79.625 28.7149C79.625 28.9694 79.7349 28.9847 79.9389 28.9847H87.9082C89.1745 28.9847 90.4356 28.9847 91.6966 28.9847C91.9269 28.9847 92.0106 28.9287 91.9949 28.6996C91.9713 28.3777 91.9713 28.0545 91.9949 27.7325C92.021 27.4423 91.9373 27.3507 91.6024 27.3507Z" fill="white"/>
<path d="M14.9286 12.9398C10.4739 12.9398 6.02097 12.9398 1.56975 12.9398C1.1616 12.9398 0.753457 12.9398 0.345312 12.9398C0.0941465 12.9398 -0.0157386 12.9856 0.00519187 13.2554C0.0305773 13.5943 0.0305773 13.9345 0.00519187 14.2734C0.00519187 14.5789 0.0941465 14.645 0.392406 14.645C2.20813 14.645 4.02385 14.645 5.83957 14.645C6.0698 14.645 6.14306 14.7112 6.13783 14.9352C6.13783 15.7751 6.13783 16.615 6.13783 17.4549C6.13783 18.1778 6.13783 18.9006 6.13783 19.6184C6.13783 22.6726 6.13783 25.7268 6.13783 28.7811C6.13783 29 6.23201 29.0203 6.41516 29.0203C7.22098 29.0203 8.03204 29.0203 8.83786 29.0203C9.10996 29.0203 9.18845 28.9592 9.18845 28.6844C9.18845 25.9203 9.18845 23.1511 9.18845 20.387C9.18845 20.1376 9.18845 19.878 9.18845 19.6438C9.22753 19.5432 9.23837 19.4343 9.21984 19.3282C9.21984 17.908 9.21984 16.4827 9.21984 15.0625C9.21984 14.757 9.28787 14.6603 9.61752 14.6654C11.4228 14.6654 13.228 14.6654 15.0333 14.6654C15.2897 14.6654 15.3891 14.6094 15.3682 14.3447C15.3425 14.0058 15.3425 13.6655 15.3682 13.3266C15.3472 12.9907 15.2164 12.9398 14.9286 12.9398Z" fill="white"/>
<path d="M45.8953 23.6347C44.7312 22.2013 43.412 20.8941 41.9603 19.7354C41.4367 19.2982 40.8786 18.9016 40.2911 18.5494C40.3434 18.5087 40.3644 18.4832 40.3905 18.4679C41.6554 17.9195 42.854 17.2366 43.9644 16.4318C45.2145 15.6148 46.3972 14.7043 47.5017 13.7084C47.7571 13.5046 47.9536 13.2398 48.072 12.9398C46.8267 12.9398 45.6179 12.9398 44.4092 12.9398C44.2988 12.9511 44.1973 13.0041 44.1266 13.0874C42.2619 14.6474 40.2076 15.9792 38.0097 17.0528C36.4183 17.9115 34.6721 18.4645 32.866 18.6817C32.4474 18.7174 32.4474 18.7275 32.4474 18.3101C32.4474 16.6405 32.4474 14.9708 32.4474 13.3012C32.4474 12.9907 32.348 12.9296 32.055 12.9347C31.2125 12.9347 30.3753 12.9347 29.5328 12.9347C29.2241 12.9347 29.1195 12.9907 29.1247 13.3165C29.1247 15.1999 29.1247 17.0833 29.1247 18.9719C29.1247 19.2264 29.1247 19.4809 29.1247 19.7405C29.1247 22.7439 29.1247 25.7472 29.1247 28.7505C29.1247 28.9694 29.2137 28.9949 29.402 28.9949C30.2863 28.9949 31.1707 28.9949 32.055 28.9949C32.348 28.9949 32.4474 28.9389 32.4474 28.6335C32.4474 26.2613 32.4474 23.8943 32.4474 21.5069C32.4474 21.2422 32.4945 21.0997 32.798 21.0589C33.1015 21.0182 33.5515 20.891 33.9282 20.7993C34.9618 20.6044 35.9599 20.2613 36.8899 19.7813H37.2248L37.6068 19.9645C39.1098 20.7335 40.4515 21.7694 41.5626 23.0188C43.2588 24.721 44.6554 26.6833 45.6964 28.8269C45.7118 28.8716 45.7426 28.9097 45.7836 28.9348C45.8247 28.9599 45.8734 28.9703 45.9214 28.9643H48.8098C48.9825 28.9643 49.0139 28.9134 48.972 28.7556C48.8796 28.367 48.7517 27.9871 48.5901 27.6205C47.8856 26.177 46.9787 24.8357 45.8953 23.6347Z" fill="white"/>
<path d="M17.4716 2.22449C17.767 2.2573 18.0475 2.36822 18.2826 2.54518C19.015 2.98306 19.643 3.5679 20.1245 4.26065C20.2745 4.52542 20.3989 4.8032 20.496 5.09038C20.5798 5.27364 20.496 5.32963 20.3129 5.27873C19.8479 5.13593 19.4342 4.8676 19.1199 4.50499C18.5076 3.86869 17.953 3.18148 17.3722 2.54518C17.3198 2.47901 17.2257 2.4281 17.2518 2.33139C17.278 2.23467 17.3983 2.24485 17.4716 2.22449Z" fill="white"/>
</g>
<defs>
<clipPath id="clip0">
<rect width="92" height="29" fill="white"/>
</clipPath>
</defs>
</svg>
