<?xml version="1.0" encoding="utf-8"?>
<!-- Generator: Adobe Illustrator 24.0.3, SVG Export Plug-In . SVG Version: 6.00 Build 0)  -->
<svg version="1.1" id="Layer_1" xmlns="http://www.w3.org/2000/svg" xmlns:xlink="http://www.w3.org/1999/xlink" x="0px" y="0px"
	 viewBox="0 0 525 525" style="enable-background:new 0 0 525 525;" xml:space="preserve">
<style type="text/css">
	.st0{clip-path:url(#SVGID_2_);fill:#EEEEEE;}
	.st1{clip-path:url(#SVGID_2_);fill:#CED9E6;}
	.st2{clip-path:url(#SVGID_2_);fill:#7C9BC1;}
	.st3{clip-path:url(#SVGID_2_);fill:#ECCFD1;}
	.st4{clip-path:url(#SVGID_2_);fill:#D47D89;}
	.st5{clip-path:url(#SVGID_2_);fill:#FBDFD2;}
	.st6{clip-path:url(#SVGID_2_);fill:#FCAE88;}
	.st7{clip-path:url(#SVGID_2_);fill:#D4D6D8;}
	.st8{clip-path:url(#SVGID_2_);fill:#909497;}
	.st9{clip-path:url(#SVGID_2_);fill:#38629E;}
	.st10{clip-path:url(#SVGID_2_);fill:#B93143;}
	.st11{clip-path:url(#SVGID_2_);fill:#FC7952;}
	.st12{clip-path:url(#SVGID_2_);fill:#555961;}
	.st13{clip-path:url(#SVGID_2_);fill:none;stroke:#FFFFFF;stroke-width:23.635;}
	.st14{fill:#2B2928;}
	.st15{font-family:'Montserrat-Light';}
	.st16{font-size:15.19px;}
	.st17{letter-spacing:-1;}
	.st18{clip-path:url(#SVGID_4_);fill:none;stroke:#FFFFFF;stroke-width:23.635;}
	.st19{fill:#555961;}
	.st20{font-family:'Montserrat-Medium';}
	.st21{font-size:26.0561px;}
	.st22{font-size:26.056px;}
	.st23{fill:#FC7952;}
	.st24{fill:#B93143;}
	.st25{fill:#38629E;}
</style>
<g>
	<defs>
		<rect id="SVGID_1_" width="525" height="525"/>
	</defs>
	<clipPath id="SVGID_2_">
		<use xlink:href="#SVGID_1_"  style="overflow:visible;"/>
	</clipPath>
	<path class="st0" d="M42.36,256.74c0,121.68,98.64,220.33,220.33,220.33V256.74H42.36z"/>
	<path class="st1" d="M80.03,256.74c0,100.88,81.78,182.66,182.65,182.66V256.74H80.03z"/>
	<path class="st2" d="M117.37,256.74c0,80.25,65.06,145.31,145.31,145.31V256.74H117.37z"/>
	<path class="st0" d="M262.68,477.07c121.68,0,220.33-98.65,220.33-220.33H262.68V477.07z"/>
	<path class="st3" d="M262.68,439.4c100.88,0,182.66-81.78,182.66-182.65H262.68V439.4z"/>
	<path class="st4" d="M262.68,402.06C342.94,402.06,408,337,408,256.74H262.68V402.06z"/>
	<path class="st0" d="M483.01,269.91c0-121.68-98.65-220.33-220.33-220.33v220.33H483.01z"/>
	<path class="st5" d="M445.34,269.91c0-100.88-81.78-182.66-182.65-182.66v182.66H445.34z"/>
	<path class="st6" d="M408,269.91c0-80.25-65.06-145.31-145.31-145.31v145.31H408z"/>
	<path class="st0" d="M262.68,49.59C141,49.59,42.36,148.23,42.36,269.91h220.33V49.59z"/>
	<path class="st7" d="M262.68,87.26c-100.88,0-182.66,81.78-182.66,182.65h182.66V87.26z"/>
	<path class="st8" d="M262.68,124.6c-80.25,0-145.31,65.06-145.31,145.31h145.31V124.6z"/>
	<path class="st9" d="M152.56,256.74c0,60.82,49.3,110.12,110.12,110.12V256.74H152.56z"/>
	<path class="st10" d="M262.68,366.87c60.82,0,110.12-49.3,110.12-110.12H262.68V366.87z"/>
	<path class="st11" d="M372.81,269.91c0-60.82-49.3-110.12-110.12-110.12v110.12H372.81z"/>
	<path class="st12" d="M262.68,159.79c-60.82,0-110.12,49.3-110.12,110.12h110.12V159.79z"/>
	<line class="st13" x1="7.78" y1="260.27" x2="517.22" y2="260.27"/>
</g>
<text transform="matrix(1 0 0 1 454.8555 265.2119)"><tspan x="0" y="0" class="st14 st15 st16">t</tspan><tspan x="5.15" y="0" class="st14 st15 st16">r</tspan><tspan x="10.47" y="0" class="st14 st15 st16">y</tspan></text>
<text transform="matrix(1 0 0 1 80.0273 265.2119)"><tspan x="0" y="0" class="st14 st15 st16">s</tspan><tspan x="6.36" y="0" class="st14 st15 st16">t</tspan><tspan x="11.5" y="0" class="st14 st15 st16">a</tspan><tspan x="19.46" y="0" class="st14 st15 st16">r</tspan><tspan x="24.76" y="0" class="st14 st15 st16">t</tspan></text>
<text transform="matrix(1 0 0 1 413.8125 265.2119)"><tspan x="0" y="0" class="st14 st15 st16">s</tspan><tspan x="6.35" y="0" class="st14 st15 st16">t</tspan><tspan x="11.5" y="0" class="st14 st15 st16">a</tspan><tspan x="19.44" y="0" class="st14 st15 st16">r</tspan><tspan x="24.76" y="0" class="st14 st15 st16">t</tspan></text>
<text transform="matrix(1 0 0 1 120.7212 265.2119)"><tspan x="0" y="0" class="st14 st15 st16 st17">k</tspan><tspan x="7.72" y="0" class="st14 st15 st16">ee</tspan><tspan x="24.06" y="0" class="st14 st15 st16">p</tspan></text>
<text transform="matrix(1 0 0 1 372.8145 265.2119)"><tspan x="0" y="0" class="st14 st15 st16 st17">k</tspan><tspan x="7.72" y="0" class="st14 st15 st16">ee</tspan><tspan x="24.06" y="0" class="st14 st15 st16">p</tspan></text>
<text transform="matrix(1 0 0 1 173.5522 265.2119)"><tspan x="0" y="0" class="st14 st15 st16">s</tspan><tspan x="6.35" y="0" class="st14 st15 st16 st17">t</tspan><tspan x="11.21" y="0" class="st14 st15 st16">o</tspan><tspan x="19.73" y="0" class="st14 st15 st16">p</tspan></text>
<text transform="matrix(1 0 0 1 331.1182 265.2119)"><tspan x="0" y="0" class="st14 st15 st16">s</tspan><tspan x="6.35" y="0" class="st14 st15 st16 st17">t</tspan><tspan x="11.21" y="0" class="st14 st15 st16">o</tspan><tspan x="19.72" y="0" class="st14 st15 st16">p</tspan></text>
<g>
	<defs>
		<rect id="SVGID_3_" width="525" height="525"/>
	</defs>
	<clipPath id="SVGID_4_">
		<use xlink:href="#SVGID_3_"  style="overflow:visible;"/>
	</clipPath>
	<line class="st18" x1="262.68" y1="23.53" x2="262.68" y2="499.49"/>
</g>
<text transform="matrix(1 0 0 1 44.6704 265.2119)"><tspan x="0" y="0" class="st14 st15 st16">t</tspan><tspan x="5.13" y="0" class="st14 st15 st16">r</tspan><tspan x="10.44" y="0" class="st14 st15 st16">y</tspan></text>
<text transform="matrix(0.5059 -0.8626 0.8626 0.5059 55.2972 159.3894)" class="st19 st20 st21">F</text>
<text transform="matrix(0.5646 -0.8253 0.8253 0.5646 62.9492 146.1186)" class="st19 st20 st21">R</text>
<text transform="matrix(0.6294 -0.7771 0.7771 0.6294 72.7728 131.5074)" class="st19 st20 st22">O</text>
<text transform="matrix(0.6898 -0.724 0.724 0.6898 85.6886 115.526)" class="st19 st20 st21">N</text>
<text transform="matrix(0.7381 -0.6747 0.6747 0.7381 99.5343 101.1925)" class="st19 st20 st21">T</text>
<text transform="matrix(0.7829 -0.6222 0.6222 0.7829 109.9053 91.6845)" class="st19 st20 st22">E</text>
<text transform="matrix(0.8306 -0.5569 0.5569 0.8306 122.4308 81.5348)" class="st19 st20 st22">N</text>
<text transform="matrix(0.8731 -0.4876 0.4876 0.8731 138.8326 70.4194)" class="st19 st20 st22">D</text>
<text transform="matrix(0.8174 0.576 -0.576 0.8174 387.088 70.612)" class="st23 st20 st21">M</text>
<text transform="matrix(0.7609 0.6489 -0.6489 0.7609 406.2802 84.0519)" class="st23 st20 st21">O</text>
<text transform="matrix(0.7063 0.7079 -0.7079 0.7063 421.9502 97.3478)" class="st23 st20 st21">B</text>
<text transform="matrix(0.6645 0.7473 -0.7473 0.6645 435.0284 110.5914)" class="st23 st20 st21">I</text>
<text transform="matrix(0.6383 0.7698 -0.7698 0.6383 439.8666 115.9277)" class="st23 st20 st22">L</text>
<text transform="matrix(0.5836 0.8121 -0.8121 0.5836 448.964 126.8965)" class="st23 st20 st21">E</text>
<text transform="matrix(0.8044 -0.5941 0.5941 0.8044 401.728 469.4905)" class="st24 st20 st21">D</text>
<text transform="matrix(0.7589 -0.6512 0.6512 0.7589 419.1775 456.4921)" class="st24 st20 st22">E</text>
<text transform="matrix(0.7095 -0.7047 0.7047 0.7095 432.4092 445.1425)" class="st24 st20 st22">V</text>
<text transform="matrix(0.6568 -0.7541 0.7541 0.6568 445.3456 432.3267)" class="st24 st20 st22">O</text>
<text transform="matrix(0.5915 -0.8063 0.8063 0.5915 459.813 415.4452)" class="st24 st20 st22">P</text>
<text transform="matrix(0.5328 -0.8462 0.8462 0.5328 470.9807 400.042)" class="st24 st20 st22">S</text>
<text transform="matrix(0.2831 0.9591 -0.9591 0.2831 20.2916 321.3234)" class="st25 st20 st21">B</text>
<text transform="matrix(0.3511 0.9363 -0.9363 0.3511 25.9548 340.4514)" class="st25 st20 st22">A</text>
<text transform="matrix(0.4178 0.9085 -0.9085 0.4178 32.7058 358.2546)" class="st25 st20 st22">C</text>
<text transform="matrix(0.4828 0.8758 -0.8758 0.4828 40.7783 375.5323)" class="st25 st20 st21">K</text>
<text transform="matrix(0.5454 0.8382 -0.8382 0.5454 50.0545 392.0779)" class="st25 st20 st22">E</text>
<text transform="matrix(0.6053 0.796 -0.796 0.6053 59.7448 406.8858)" class="st25 st20 st21">N</text>
<text transform="matrix(0.6709 0.7416 -0.7416 0.6709 72.8786 423.9355)" class="st25 st20 st21">D</text>
<text transform="matrix(0.7146 0.6995 -0.6995 0.7146 87.586 439.7863)" class="st25 st20 st21"> </text>
<text transform="matrix(0.7475 0.6642 -0.6642 0.7475 92.4992 444.7596)" class="st25 st20 st22">&amp;</text>
<text transform="matrix(0.7786 0.6275 -0.6275 0.7786 105.9428 456.4982)" class="st25 st20 st22"> </text>
<text transform="matrix(0.8147 0.5799 -0.5799 0.8147 111.3541 461.1193)" class="st25 st20 st21">M</text>
<text transform="matrix(0.8599 0.5104 -0.5104 0.8599 132.0744 475.4903)" class="st25 st20 st21">L</text>
</svg>
